<svg id="Layer_1" data-name="Layer 1" xmlns="http://www.w3.org/2000/svg" viewBox="0 0 512 512"><defs><style>.cls-1{fill:#aec78f;}.cls-2{fill:#68751a;}</style></defs><path class="cls-1" d="M392.89,74.21a45,45,0,0,1,44.9,44.9V392.89a45,45,0,0,1-44.9,44.9H119.11a45,45,0,0,1-44.9-44.9V119.11a45,45,0,0,1,44.9-44.9H392.89m0-21.21H119.11A66.11,66.11,0,0,0,53,119.11V392.89A66.11,66.11,0,0,0,119.11,459H392.89A66.11,66.11,0,0,0,459,392.89V119.11A66.11,66.11,0,0,0,392.89,53Z"/><path class="cls-1" d="M256,233.28A69.69,69.69,0,1,1,186.31,303,69.76,69.76,0,0,1,256,233.28m0-21.21A90.9,90.9,0,1,0,346.9,303,90.89,90.89,0,0,0,256,212.07Z"/><path class="cls-1" d="M256,280.62A22.35,22.35,0,1,1,233.65,303,22.37,22.37,0,0,1,256,280.62m0-21.21A43.56,43.56,0,1,0,299.55,303,43.55,43.55,0,0,0,256,259.41Z"/><path class="cls-1" d="M133.29,113.6a18.18,18.18,0,1,0,18.18,18.18,18.18,18.18,0,0,0-18.18-18.18Z"/><path class="cls-2" d="M313.57,254.49c-3.81-52.06,3.31-74.54,24.24-97,21.2-22.72,62.11-27.27,84.83-62.11C428.7,122.69,442.16,178,406,219.64,375.68,254.49,331,255,313.57,254.49Z"/><path class="cls-1" d="M330.23,237.82a2.91,2.91,0,0,1-.87-.13,3,3,0,0,1-2-3.77c5.27-17.57,20.07-35.89,31.56-48.16,12.82-13.7,22.31-21.38,33.45-28.23,1.43-.88,12.76-7.49,13.64-6.06s-12.3,9.6-13.64,10.6c-18.18,13.64-50.39,44.2-59.21,73.59A3,3,0,0,1,330.23,237.82Z"/></svg>